<svg width="72" height="71" viewBox="0 0 72 71" fill="none" xmlns="http://www.w3.org/2000/svg">
<rect width="72" height="71" fill="#E5E5E5"/>
<g clip-path="url(#clip0_0_1)">
<rect width="1366" height="5161" transform="translate(-1024 -1041)" fill="white"/>
<g filter="url(#filter0_d_0_1)">
<rect x="-251" y="-81" width="380" height="525" rx="10" fill="white"/>
</g>
<path d="M5.52211 32.7629C5.53017 41.946 3.60633 51.0294 -0.126137 59.4311C-3.8586 67.8328 -9.31734 75.3673 -16.1525 81.5518C-18.0537 83.2739 -20.0526 84.8865 -22.1393 86.3818C-24.8173 88.3007 -27.6365 90.0174 -30.5731 91.5175H-30.6039C-31.2298 91.8435 -31.8659 92.1543 -32.5072 92.4549C-32.7996 92.5976 -33.0869 92.7301 -33.3844 92.8625C-35.2415 93.7083 -37.1465 94.4674 -39.0993 95.1399C-40.6384 95.6494 -42.2184 96.1589 -43.8139 96.5767C-53.017 99.0079 -62.6369 99.4579 -72.0294 97.8963C-73.1426 97.7129 -74.2404 97.504 -75.3331 97.2645L-76.2565 97.0556C-79.044 96.4088 -81.7859 95.5817 -84.4647 94.5795C-86.0208 93.9987 -87.5461 93.3618 -89.0407 92.6689C-89.6204 92.3989 -90.2001 92.1238 -90.7696 91.8384C-91.1594 91.6448 -91.5442 91.4461 -91.929 91.2474C-102.367 85.8032 -111.161 77.7016 -117.41 67.7721C-123.659 57.8427 -127.138 46.4422 -127.492 34.7382C-127.845 23.0341 -125.06 11.447 -119.422 1.1634C-113.784 -9.12023 -105.495 -17.7309 -95.4041 -23.7868C-85.3132 -29.8428 -73.7831 -33.1264 -61.9942 -33.3015C-50.2054 -33.4765 -38.5816 -30.5367 -28.3129 -24.7831C-18.0443 -19.0295 -9.49983 -10.6689 -3.55456 -0.55727C2.39072 9.55434 5.52317 21.0536 5.52211 32.7629Z" fill="url(#paint0_linear_0_1)"/>
<path d="M-26.9876 58.7469L-19.6721 67.2605L6.0553 41.898L7.03003 36.7063L12.1601 32.2788L9.87722 39.0296V47.8234C9.87722 47.8234 -9.96593 79.7685 -15.4346 81.4142C-21.8318 83.3451 -34.5596 69.757 -34.5596 69.757L-26.9876 58.7469Z" fill="url(#paint1_linear_0_1)"/>
<g filter="url(#filter1_d_0_1)">
<path d="M44.2844 10H16.8538C13.0685 10 10 13.0475 10 16.8068V44.0493C10 47.8086 13.0685 50.8561 16.8538 50.8561H44.2844C48.0696 50.8561 51.1381 47.8086 51.1381 44.0493V16.8068C51.1381 13.0475 48.0696 10 44.2844 10Z" fill="#F2C94C"/>
</g>
<path d="M40 27C40 22 36 18 31 18C26 18 22 22 22 27C22 30.1 23.6 32.9 26 34.5V37C26 38.3 26.8 39.4 28 39.8V40C28 41.7 29.3 43 31 43C32.7 43 34 41.7 34 40V39.8C35.2 39.4 36 38.3 36 37V34.5C38.4 32.9 40 30.1 40 27ZM24 27C24 23.1 27.1 20 31 20C34.9 20 38 23.1 38 27C38 30.5 35.4 33.4 32 33.9V31.4L33.7 29.7C34.1 29.3 34.1 28.7 33.7 28.3C33.3 27.9 32.7 27.9 32.3 28.3L31 29.6L29.7 28.3C29.3 27.9 28.7 27.9 28.3 28.3C27.9 28.7 27.9 29.3 28.3 29.7L30 31.4V33.9C26.6 33.4 24 30.5 24 27ZM31 41C30.4 41 30 40.6 30 40H32C32 40.6 31.6 41 31 41ZM34 37C34 37.6 33.6 38 33 38H29C28.4 38 28 37.6 28 37V35.5C28.9 35.8 29.9 36 31 36C32.1 36 33.1 35.8 34 35.5V37Z" fill="white"/>
</g>
<defs>
<filter id="filter0_d_0_1" x="-296" y="-111" width="480" height="625" filterUnits="userSpaceOnUse" color-interpolation-filters="sRGB">
<feFlood flood-opacity="0" result="BackgroundImageFix"/>
<feColorMatrix in="SourceAlpha" type="matrix" values="0 0 0 0 0 0 0 0 0 0 0 0 0 0 0 0 0 0 127 0" result="hardAlpha"/>
<feOffset dx="5" dy="20"/>
<feGaussianBlur stdDeviation="25"/>
<feColorMatrix type="matrix" values="0 0 0 0 0.0627451 0 0 0 0 0.439216 0 0 0 0 0.694118 0 0 0 0.2 0"/>
<feBlend mode="normal" in2="BackgroundImageFix" result="effect1_dropShadow_0_1"/>
<feBlend mode="normal" in="SourceGraphic" in2="effect1_dropShadow_0_1" result="shape"/>
</filter>
<filter id="filter1_d_0_1" x="0" y="0" width="71.1377" height="70.8561" filterUnits="userSpaceOnUse" color-interpolation-filters="sRGB">
<feFlood flood-opacity="0" result="BackgroundImageFix"/>
<feColorMatrix in="SourceAlpha" type="matrix" values="0 0 0 0 0 0 0 0 0 0 0 0 0 0 0 0 0 0 127 0" result="hardAlpha"/>
<feOffset dx="5" dy="5"/>
<feGaussianBlur stdDeviation="7.5"/>
<feColorMatrix type="matrix" values="0 0 0 0 0 0 0 0 0 0 0 0 0 0 0 0 0 0 0.15 0"/>
<feBlend mode="normal" in2="BackgroundImageFix" result="effect1_dropShadow_0_1"/>
<feBlend mode="normal" in="SourceGraphic" in2="effect1_dropShadow_0_1" result="shape"/>
</filter>
<linearGradient id="paint0_linear_0_1" x1="-60.7267" y1="-26.1349" x2="-62.9707" y2="104.076" gradientUnits="userSpaceOnUse">
<stop stop-color="white" stop-opacity="0"/>
<stop offset="1" stop-color="#64B5F6" stop-opacity="0.6"/>
</linearGradient>
<linearGradient id="paint1_linear_0_1" x1="19.1216" y1="44.9397" x2="-30.4113" y2="73.833" gradientUnits="userSpaceOnUse">
<stop stop-color="#FFF8E1"/>
<stop offset="1" stop-color="#FFCC80"/>
</linearGradient>
<clipPath id="clip0_0_1">
<rect width="1366" height="5161" fill="white" transform="translate(-1024 -1041)"/>
</clipPath>
</defs>
</svg>
