<svg width="32" height="32" viewBox="0 0 32 32" fill="none" xmlns="http://www.w3.org/2000/svg">
<rect width="32" height="32" fill="#E5E5E5"/>
<g clip-path="url(#clip0_0_1)">
<rect width="1366" height="5161" transform="translate(-213 -4787)" fill="white"/>
<path d="M-213 -975C-213 -1085.46 -123.457 -1175 -13 -1175H1153V374H-213V-975Z" fill="#5A98D0"/>
<path d="M-213 -495H857C967.457 -495 1057 -405.457 1057 -295V374H-213V-495Z" fill="#316099"/>
<g clip-path="url(#clip1_0_1)">
<circle cx="16" cy="16" r="16" fill="#98C3E8"/>
<circle cx="32" cy="16" r="15" fill="white" stroke="#316099" stroke-width="2"/>
<path d="M38.3 23L33.38 9H29.96L25.06 23H28.04L28.88 20.48H34.46L35.3 23H38.3ZM31.68 12.18L33.6 17.9H29.76L31.68 12.18Z" fill="#316099"/>
</g>
</g>
<defs>
<clipPath id="clip0_0_1">
<rect width="1366" height="5161" fill="white" transform="translate(-213 -4787)"/>
</clipPath>
<clipPath id="clip1_0_1">
<rect width="48" height="48" fill="white" transform="matrix(1 0 0 -1 0 40)"/>
</clipPath>
</defs>
</svg>
